<?xml version="1.0" standalone="no"?><!DOCTYPE svg PUBLIC "-//W3C//DTD SVG 1.1//EN" "http://www.w3.org/Graphics/SVG/1.1/DTD/svg11.dtd"><svg t="1552377419377" class="icon" style="" viewBox="0 0 1024 1024" version="1.1" xmlns="http://www.w3.org/2000/svg" p-id="4452" xmlns:xlink="http://www.w3.org/1999/xlink" width="200" height="200"><defs><style type="text/css"></style></defs><path d="M928 998.4H83.2v-256c0-96 121.6-211.2 211.2-281.6l12.8-12.8 12.8 12.8c6.4 0 6.4 6.4 12.8 6.4-51.2-51.2-70.4-115.2-70.4-185.6C262.4 134.4 371.2 12.8 505.6 12.8s243.2 121.6 243.2 268.8c0 76.8-32 153.6-83.2 204.8 19.2-12.8 32-19.2 32-19.2l12.8-6.4 147.2 140.8c44.8 51.2 64 96 70.4 134.4 6.4 57.6 0 236.8 0 249.6v12.8z" fill="#FFFFFF" p-id="4453"></path><path d="M121.6 960h768v-224c0-32-19.2-70.4-57.6-115.2l-128-121.6c-51.2 32-217.6 115.2-396.8 0C185.6 601.6 121.6 684.8 121.6 742.4V960z" fill="#fb7b29" p-id="4454" data-spm-anchor-id="a313x.7781069.0.i9" class="selected"></path><path d="M505.6 51.2C390.4 51.2 300.8 153.6 300.8 281.6c0 64 19.2 121.6 64 160 6.4 6.4 134.4 128 275.2 12.8 44.8-44.8 76.8-108.8 76.8-179.2C710.4 153.6 614.4 51.2 505.6 51.2z" fill="#fb7b29" p-id="4455" data-spm-anchor-id="a313x.7781069.0.i11" class="selected"></path></svg>