<?xml version="1.0" standalone="no"?><!DOCTYPE svg PUBLIC "-//W3C//DTD SVG 1.1//EN" "http://www.w3.org/Graphics/SVG/1.1/DTD/svg11.dtd"><svg t="1552445539994" class="icon" style="" viewBox="0 0 1024 1024" version="1.1" xmlns="http://www.w3.org/2000/svg" p-id="13368" xmlns:xlink="http://www.w3.org/1999/xlink" width="200" height="200"><defs><style type="text/css"></style></defs><path d="M563.29 527.416l63.718-35.718c11.958 117.774-80.418 219.544-198.222 219.544-110.036 0-199.242-89.2-199.242-199.242 0-110.036 89.208-199.246 199.242-199.246 44.35 0 85.31 14.5 118.416 39.008l-64.416 36.104c-16.556-7.23-34.814-11.268-54.006-11.268-74.66 0-135.4 60.742-135.4 135.402 0 74.658 60.74 135.4 135.4 135.4C498.232 647.4 555.61 594.838 563.29 527.416zM688.228 457.944c17.756 86.124-7.368 176.666-72.1 241.402-50.042 50.042-116.58 77.6-187.344 77.6-70.768 0-137.3-27.558-187.344-77.6-50.042-50.042-77.6-116.576-77.6-187.346 0-70.766 27.558-137.298 77.602-187.342s116.576-77.604 187.342-77.604c67.102 0 130.386 24.794 179.428 70.028 18.048-12.15 32.332-28.938 41.432-48.638-58.368-52.958-135.844-85.23-220.86-85.23C247.208 183.212 100 330.422 100 512c0 181.59 147.208 328.79 328.786 328.79 206.284 0 362.566-188.308 322.632-392.298C729.194 445.728 707.524 449.314 688.228 457.944zM824.06 290.826l26.51-102.854-148.26 83.104c-13.292 40.37-41.092 73.954-77.792 94.524l-154.954 86.856c-11.5-8.22-25.572-13.076-40.788-13.076-38.784 0-70.226 31.44-70.226 70.226 0 38.782 31.444 70.226 70.226 70.226 39.596 0 71.958-32.902 70.144-73.522l155.376-87.092c36.852-20.656 80.114-26.732 121.222-17.028L924 318.97 824.06 290.826z" p-id="13369" fill="#fb7b29"></path></svg>